<mxfile host="app.diagrams.net" modified="2022-04-15T12:21:00.569Z" agent="5.0 (X11)" etag="usgY8s06A4szrT37sFAM" version="17.4.4" type="github" pages="4">
  <diagram id="6_e-GLPGgVgd4jdA4Gsi" name="Simplified">
    <mxGraphModel dx="2076" dy="1094" grid="1" gridSize="10" guides="1" tooltips="1" connect="1" arrows="1" fold="1" page="1" pageScale="1" pageWidth="1169" pageHeight="827" math="0" shadow="0">
      <root>
        <mxCell id="0" />
        <mxCell id="1" parent="0" />
        <mxCell id="kwYU9JfafhzMsdVUl_qw-1" value="DNS" style="ellipse;whiteSpace=wrap;html=1;fillColor=#e1d5e7;strokeColor=#9673a6;" parent="1" vertex="1">
          <mxGeometry x="500" y="40" width="120" height="80" as="geometry" />
        </mxCell>
        <mxCell id="kwYU9JfafhzMsdVUl_qw-18" style="edgeStyle=orthogonalEdgeStyle;rounded=0;orthogonalLoop=1;jettySize=auto;html=1;entryX=0.5;entryY=0;entryDx=0;entryDy=0;" parent="1" source="kwYU9JfafhzMsdVUl_qw-2" target="kwYU9JfafhzMsdVUl_qw-3" edge="1">
          <mxGeometry relative="1" as="geometry" />
        </mxCell>
        <mxCell id="kwYU9JfafhzMsdVUl_qw-20" style="edgeStyle=orthogonalEdgeStyle;rounded=0;orthogonalLoop=1;jettySize=auto;html=1;" parent="1" source="kwYU9JfafhzMsdVUl_qw-2" target="kwYU9JfafhzMsdVUl_qw-6" edge="1">
          <mxGeometry relative="1" as="geometry" />
        </mxCell>
        <mxCell id="kwYU9JfafhzMsdVUl_qw-21" style="edgeStyle=orthogonalEdgeStyle;rounded=0;orthogonalLoop=1;jettySize=auto;html=1;entryX=0.5;entryY=0;entryDx=0;entryDy=0;" parent="1" source="kwYU9JfafhzMsdVUl_qw-2" target="kwYU9JfafhzMsdVUl_qw-7" edge="1">
          <mxGeometry relative="1" as="geometry" />
        </mxCell>
        <mxCell id="kwYU9JfafhzMsdVUl_qw-22" style="edgeStyle=orthogonalEdgeStyle;rounded=0;orthogonalLoop=1;jettySize=auto;html=1;" parent="1" source="kwYU9JfafhzMsdVUl_qw-2" target="kwYU9JfafhzMsdVUl_qw-9" edge="1">
          <mxGeometry relative="1" as="geometry" />
        </mxCell>
        <mxCell id="kwYU9JfafhzMsdVUl_qw-2" value="Loadbalancer" style="rhombus;whiteSpace=wrap;html=1;fillColor=#f8cecc;strokeColor=#b85450;" parent="1" vertex="1">
          <mxGeometry x="285.5" y="220" width="123" height="120" as="geometry" />
        </mxCell>
        <mxCell id="O0h7zI4vkFNFAGtSuNNZ-4" style="edgeStyle=orthogonalEdgeStyle;rounded=0;orthogonalLoop=1;jettySize=auto;html=1;entryX=0.5;entryY=0;entryDx=0;entryDy=0;entryPerimeter=0;" parent="1" source="kwYU9JfafhzMsdVUl_qw-3" target="kwYU9JfafhzMsdVUl_qw-4" edge="1">
          <mxGeometry relative="1" as="geometry">
            <Array as="points">
              <mxPoint x="97" y="590" />
              <mxPoint x="347" y="590" />
            </Array>
          </mxGeometry>
        </mxCell>
        <mxCell id="kwYU9JfafhzMsdVUl_qw-3" value="Server" style="rounded=1;whiteSpace=wrap;html=1;fillColor=#dae8fc;strokeColor=#6c8ebf;" parent="1" vertex="1">
          <mxGeometry x="37" y="460" width="120" height="60" as="geometry" />
        </mxCell>
        <mxCell id="kwYU9JfafhzMsdVUl_qw-4" value="DB" style="shape=cylinder3;whiteSpace=wrap;html=1;boundedLbl=1;backgroundOutline=1;size=15;fillColor=#fff2cc;strokeColor=#d6b656;" parent="1" vertex="1">
          <mxGeometry x="317" y="700" width="60" height="80" as="geometry" />
        </mxCell>
        <mxCell id="kwYU9JfafhzMsdVUl_qw-15" value="" style="edgeStyle=orthogonalEdgeStyle;rounded=0;orthogonalLoop=1;jettySize=auto;html=1;" parent="1" source="kwYU9JfafhzMsdVUl_qw-5" target="kwYU9JfafhzMsdVUl_qw-2" edge="1">
          <mxGeometry relative="1" as="geometry" />
        </mxCell>
        <mxCell id="kwYU9JfafhzMsdVUl_qw-5" value="" style="shape=actor;whiteSpace=wrap;html=1;" parent="1" vertex="1">
          <mxGeometry x="327" y="50" width="40" height="60" as="geometry" />
        </mxCell>
        <mxCell id="O0h7zI4vkFNFAGtSuNNZ-5" style="edgeStyle=orthogonalEdgeStyle;rounded=0;orthogonalLoop=1;jettySize=auto;html=1;" parent="1" source="kwYU9JfafhzMsdVUl_qw-6" target="kwYU9JfafhzMsdVUl_qw-4" edge="1">
          <mxGeometry relative="1" as="geometry" />
        </mxCell>
        <mxCell id="kwYU9JfafhzMsdVUl_qw-6" value="Server" style="rounded=1;whiteSpace=wrap;html=1;fillColor=#dae8fc;strokeColor=#6c8ebf;" parent="1" vertex="1">
          <mxGeometry x="204" y="460" width="120" height="60" as="geometry" />
        </mxCell>
        <mxCell id="O0h7zI4vkFNFAGtSuNNZ-6" style="edgeStyle=orthogonalEdgeStyle;rounded=0;orthogonalLoop=1;jettySize=auto;html=1;" parent="1" source="kwYU9JfafhzMsdVUl_qw-7" target="kwYU9JfafhzMsdVUl_qw-4" edge="1">
          <mxGeometry relative="1" as="geometry" />
        </mxCell>
        <mxCell id="kwYU9JfafhzMsdVUl_qw-7" value="Server" style="rounded=1;whiteSpace=wrap;html=1;fillColor=#dae8fc;strokeColor=#6c8ebf;" parent="1" vertex="1">
          <mxGeometry x="370" y="460" width="120" height="60" as="geometry" />
        </mxCell>
        <mxCell id="O0h7zI4vkFNFAGtSuNNZ-7" style="edgeStyle=orthogonalEdgeStyle;rounded=0;orthogonalLoop=1;jettySize=auto;html=1;" parent="1" source="kwYU9JfafhzMsdVUl_qw-9" target="kwYU9JfafhzMsdVUl_qw-4" edge="1">
          <mxGeometry relative="1" as="geometry">
            <Array as="points">
              <mxPoint x="597" y="590" />
              <mxPoint x="347" y="590" />
            </Array>
          </mxGeometry>
        </mxCell>
        <mxCell id="kwYU9JfafhzMsdVUl_qw-9" value="Server" style="rounded=1;whiteSpace=wrap;html=1;fillColor=#dae8fc;strokeColor=#6c8ebf;" parent="1" vertex="1">
          <mxGeometry x="537" y="460" width="120" height="60" as="geometry" />
        </mxCell>
        <mxCell id="kwYU9JfafhzMsdVUl_qw-11" value="" style="endArrow=classic;html=1;rounded=0;" parent="1" edge="1">
          <mxGeometry width="50" height="50" relative="1" as="geometry">
            <mxPoint x="390" y="50" as="sourcePoint" />
            <mxPoint x="490" y="50" as="targetPoint" />
          </mxGeometry>
        </mxCell>
        <mxCell id="kwYU9JfafhzMsdVUl_qw-12" value="" style="endArrow=classic;html=1;rounded=0;" parent="1" edge="1">
          <mxGeometry width="50" height="50" relative="1" as="geometry">
            <mxPoint x="490" y="110" as="sourcePoint" />
            <mxPoint x="390" y="110" as="targetPoint" />
          </mxGeometry>
        </mxCell>
        <mxCell id="kwYU9JfafhzMsdVUl_qw-13" value="www.example.com?" style="text;html=1;strokeColor=none;fillColor=none;align=center;verticalAlign=middle;whiteSpace=wrap;rounded=0;" parent="1" vertex="1">
          <mxGeometry x="403" y="20" width="60" height="30" as="geometry" />
        </mxCell>
        <mxCell id="kwYU9JfafhzMsdVUl_qw-14" value="&lt;pre class=&quot;newpage&quot;&gt;203.0.113.72&lt;/pre&gt;" style="text;html=1;strokeColor=none;fillColor=none;align=center;verticalAlign=middle;whiteSpace=wrap;rounded=0;" parent="1" vertex="1">
          <mxGeometry x="380" y="110" width="130" height="50" as="geometry" />
        </mxCell>
        <mxCell id="kwYU9JfafhzMsdVUl_qw-16" value="HTTPS" style="text;html=1;strokeColor=none;fillColor=none;align=center;verticalAlign=middle;whiteSpace=wrap;rounded=0;" parent="1" vertex="1">
          <mxGeometry x="290" y="150" width="60" height="30" as="geometry" />
        </mxCell>
        <mxCell id="kwYU9JfafhzMsdVUl_qw-17" value="&lt;pre class=&quot;newpage&quot;&gt;203.0.113.72&lt;/pre&gt;" style="text;html=1;strokeColor=none;fillColor=none;align=center;verticalAlign=middle;whiteSpace=wrap;rounded=0;" parent="1" vertex="1">
          <mxGeometry x="350" y="210" width="130" height="50" as="geometry" />
        </mxCell>
        <mxCell id="kwYU9JfafhzMsdVUl_qw-23" value="" style="curved=1;endArrow=classic;html=1;rounded=0;exitX=0;exitY=1;exitDx=0;exitDy=0;entryX=0.5;entryY=0;entryDx=0;entryDy=0;dashed=1;fillColor=#dae8fc;strokeColor=#6c8ebf;" parent="1" source="kwYU9JfafhzMsdVUl_qw-2" target="kwYU9JfafhzMsdVUl_qw-3" edge="1">
          <mxGeometry width="50" height="50" relative="1" as="geometry">
            <mxPoint x="240" y="320" as="sourcePoint" />
            <mxPoint x="190" y="370" as="targetPoint" />
            <Array as="points">
              <mxPoint x="190" y="320" />
              <mxPoint x="240" y="370" />
            </Array>
          </mxGeometry>
        </mxCell>
        <mxCell id="kwYU9JfafhzMsdVUl_qw-24" value="" style="curved=1;endArrow=classic;html=1;rounded=0;entryX=0.5;entryY=0;entryDx=0;entryDy=0;exitX=0;exitY=1;exitDx=0;exitDy=0;dashed=1;fillColor=#dae8fc;strokeColor=#6c8ebf;" parent="1" source="kwYU9JfafhzMsdVUl_qw-2" target="kwYU9JfafhzMsdVUl_qw-6" edge="1">
          <mxGeometry width="50" height="50" relative="1" as="geometry">
            <mxPoint x="320" y="320" as="sourcePoint" />
            <mxPoint x="107" y="470" as="targetPoint" />
            <Array as="points">
              <mxPoint x="200" y="330" />
              <mxPoint x="250" y="380" />
            </Array>
          </mxGeometry>
        </mxCell>
        <mxCell id="kwYU9JfafhzMsdVUl_qw-25" value="" style="curved=1;endArrow=classic;html=1;rounded=0;entryX=0.5;entryY=0;entryDx=0;entryDy=0;exitX=1;exitY=1;exitDx=0;exitDy=0;dashed=1;fillColor=#dae8fc;strokeColor=#6c8ebf;" parent="1" source="kwYU9JfafhzMsdVUl_qw-2" target="kwYU9JfafhzMsdVUl_qw-7" edge="1">
          <mxGeometry width="50" height="50" relative="1" as="geometry">
            <mxPoint x="537" y="300" as="sourcePoint" />
            <mxPoint x="484.75" y="450" as="targetPoint" />
            <Array as="points">
              <mxPoint x="420.75" y="320" />
              <mxPoint x="470.75" y="370" />
            </Array>
          </mxGeometry>
        </mxCell>
        <mxCell id="kwYU9JfafhzMsdVUl_qw-26" value="" style="curved=1;endArrow=classic;html=1;rounded=0;entryX=0.5;entryY=0;entryDx=0;entryDy=0;exitX=1;exitY=1;exitDx=0;exitDy=0;dashed=1;fillColor=#dae8fc;strokeColor=#6c8ebf;" parent="1" source="kwYU9JfafhzMsdVUl_qw-2" target="kwYU9JfafhzMsdVUl_qw-9" edge="1">
          <mxGeometry width="50" height="50" relative="1" as="geometry">
            <mxPoint x="387.75" y="320" as="sourcePoint" />
            <mxPoint x="440" y="470" as="targetPoint" />
            <Array as="points">
              <mxPoint x="430.75" y="330" />
              <mxPoint x="480.75" y="380" />
            </Array>
          </mxGeometry>
        </mxCell>
        <mxCell id="kwYU9JfafhzMsdVUl_qw-27" value="Healthchecks" style="text;html=1;strokeColor=none;fillColor=none;align=center;verticalAlign=middle;whiteSpace=wrap;rounded=0;" parent="1" vertex="1">
          <mxGeometry x="430" y="310" width="60" height="30" as="geometry" />
        </mxCell>
        <mxCell id="O0h7zI4vkFNFAGtSuNNZ-1" value="User Traffic" style="text;html=1;strokeColor=none;fillColor=none;align=center;verticalAlign=middle;whiteSpace=wrap;rounded=0;" parent="1" vertex="1">
          <mxGeometry x="120" y="260" width="90" height="30" as="geometry" />
        </mxCell>
        <mxCell id="O0h7zI4vkFNFAGtSuNNZ-2" value="User" style="text;html=1;strokeColor=none;fillColor=none;align=center;verticalAlign=middle;whiteSpace=wrap;rounded=0;" parent="1" vertex="1">
          <mxGeometry x="280" y="80" width="60" height="30" as="geometry" />
        </mxCell>
      </root>
    </mxGraphModel>
  </diagram>
  <diagram name="Simplified - Failed" id="qMLDqSnFu9eWWBkXCV-G">
    <mxGraphModel dx="2076" dy="1094" grid="1" gridSize="10" guides="1" tooltips="1" connect="1" arrows="1" fold="1" page="1" pageScale="1" pageWidth="1169" pageHeight="827" math="0" shadow="0">
      <root>
        <mxCell id="SNZ6q9r0I1uXDhb-Yw4I-0" />
        <mxCell id="SNZ6q9r0I1uXDhb-Yw4I-1" parent="SNZ6q9r0I1uXDhb-Yw4I-0" />
        <mxCell id="SNZ6q9r0I1uXDhb-Yw4I-2" value="DNS" style="ellipse;whiteSpace=wrap;html=1;fillColor=#e1d5e7;strokeColor=#9673a6;" parent="SNZ6q9r0I1uXDhb-Yw4I-1" vertex="1">
          <mxGeometry x="500" y="40" width="120" height="80" as="geometry" />
        </mxCell>
        <mxCell id="SNZ6q9r0I1uXDhb-Yw4I-3" style="edgeStyle=orthogonalEdgeStyle;rounded=0;orthogonalLoop=1;jettySize=auto;html=1;entryX=0.5;entryY=0;entryDx=0;entryDy=0;" parent="SNZ6q9r0I1uXDhb-Yw4I-1" source="SNZ6q9r0I1uXDhb-Yw4I-7" target="SNZ6q9r0I1uXDhb-Yw4I-9" edge="1">
          <mxGeometry relative="1" as="geometry" />
        </mxCell>
        <mxCell id="SNZ6q9r0I1uXDhb-Yw4I-4" style="edgeStyle=orthogonalEdgeStyle;rounded=0;orthogonalLoop=1;jettySize=auto;html=1;" parent="SNZ6q9r0I1uXDhb-Yw4I-1" source="SNZ6q9r0I1uXDhb-Yw4I-7" target="SNZ6q9r0I1uXDhb-Yw4I-14" edge="1">
          <mxGeometry relative="1" as="geometry" />
        </mxCell>
        <mxCell id="SNZ6q9r0I1uXDhb-Yw4I-5" style="edgeStyle=orthogonalEdgeStyle;rounded=0;orthogonalLoop=1;jettySize=auto;html=1;entryX=0.5;entryY=0;entryDx=0;entryDy=0;" parent="SNZ6q9r0I1uXDhb-Yw4I-1" source="SNZ6q9r0I1uXDhb-Yw4I-7" target="SNZ6q9r0I1uXDhb-Yw4I-16" edge="1">
          <mxGeometry relative="1" as="geometry" />
        </mxCell>
        <mxCell id="SNZ6q9r0I1uXDhb-Yw4I-7" value="Loadbalancer" style="rhombus;whiteSpace=wrap;html=1;fillColor=#f8cecc;strokeColor=#b85450;" parent="SNZ6q9r0I1uXDhb-Yw4I-1" vertex="1">
          <mxGeometry x="285.5" y="220" width="123" height="120" as="geometry" />
        </mxCell>
        <mxCell id="SNZ6q9r0I1uXDhb-Yw4I-8" style="edgeStyle=orthogonalEdgeStyle;rounded=0;orthogonalLoop=1;jettySize=auto;html=1;entryX=0.5;entryY=0;entryDx=0;entryDy=0;entryPerimeter=0;" parent="SNZ6q9r0I1uXDhb-Yw4I-1" source="SNZ6q9r0I1uXDhb-Yw4I-9" target="SNZ6q9r0I1uXDhb-Yw4I-10" edge="1">
          <mxGeometry relative="1" as="geometry">
            <Array as="points">
              <mxPoint x="97" y="590" />
              <mxPoint x="347" y="590" />
            </Array>
          </mxGeometry>
        </mxCell>
        <mxCell id="SNZ6q9r0I1uXDhb-Yw4I-9" value="Server" style="rounded=1;whiteSpace=wrap;html=1;fillColor=#dae8fc;strokeColor=#6c8ebf;" parent="SNZ6q9r0I1uXDhb-Yw4I-1" vertex="1">
          <mxGeometry x="37" y="460" width="120" height="60" as="geometry" />
        </mxCell>
        <mxCell id="SNZ6q9r0I1uXDhb-Yw4I-10" value="DB" style="shape=cylinder3;whiteSpace=wrap;html=1;boundedLbl=1;backgroundOutline=1;size=15;fillColor=#fff2cc;strokeColor=#d6b656;" parent="SNZ6q9r0I1uXDhb-Yw4I-1" vertex="1">
          <mxGeometry x="317" y="700" width="60" height="80" as="geometry" />
        </mxCell>
        <mxCell id="SNZ6q9r0I1uXDhb-Yw4I-11" value="" style="edgeStyle=orthogonalEdgeStyle;rounded=0;orthogonalLoop=1;jettySize=auto;html=1;" parent="SNZ6q9r0I1uXDhb-Yw4I-1" source="SNZ6q9r0I1uXDhb-Yw4I-12" target="SNZ6q9r0I1uXDhb-Yw4I-7" edge="1">
          <mxGeometry relative="1" as="geometry" />
        </mxCell>
        <mxCell id="SNZ6q9r0I1uXDhb-Yw4I-12" value="" style="shape=actor;whiteSpace=wrap;html=1;" parent="SNZ6q9r0I1uXDhb-Yw4I-1" vertex="1">
          <mxGeometry x="327" y="50" width="40" height="60" as="geometry" />
        </mxCell>
        <mxCell id="SNZ6q9r0I1uXDhb-Yw4I-13" style="edgeStyle=orthogonalEdgeStyle;rounded=0;orthogonalLoop=1;jettySize=auto;html=1;" parent="SNZ6q9r0I1uXDhb-Yw4I-1" source="SNZ6q9r0I1uXDhb-Yw4I-14" target="SNZ6q9r0I1uXDhb-Yw4I-10" edge="1">
          <mxGeometry relative="1" as="geometry" />
        </mxCell>
        <mxCell id="SNZ6q9r0I1uXDhb-Yw4I-14" value="Server" style="rounded=1;whiteSpace=wrap;html=1;fillColor=#dae8fc;strokeColor=#6c8ebf;" parent="SNZ6q9r0I1uXDhb-Yw4I-1" vertex="1">
          <mxGeometry x="204" y="460" width="120" height="60" as="geometry" />
        </mxCell>
        <mxCell id="SNZ6q9r0I1uXDhb-Yw4I-15" style="edgeStyle=orthogonalEdgeStyle;rounded=0;orthogonalLoop=1;jettySize=auto;html=1;" parent="SNZ6q9r0I1uXDhb-Yw4I-1" source="SNZ6q9r0I1uXDhb-Yw4I-16" target="SNZ6q9r0I1uXDhb-Yw4I-10" edge="1">
          <mxGeometry relative="1" as="geometry" />
        </mxCell>
        <mxCell id="SNZ6q9r0I1uXDhb-Yw4I-16" value="Server" style="rounded=1;whiteSpace=wrap;html=1;fillColor=#dae8fc;strokeColor=#6c8ebf;" parent="SNZ6q9r0I1uXDhb-Yw4I-1" vertex="1">
          <mxGeometry x="370" y="460" width="120" height="60" as="geometry" />
        </mxCell>
        <mxCell id="SNZ6q9r0I1uXDhb-Yw4I-17" style="edgeStyle=orthogonalEdgeStyle;rounded=0;orthogonalLoop=1;jettySize=auto;html=1;" parent="SNZ6q9r0I1uXDhb-Yw4I-1" source="SNZ6q9r0I1uXDhb-Yw4I-18" target="SNZ6q9r0I1uXDhb-Yw4I-10" edge="1">
          <mxGeometry relative="1" as="geometry">
            <Array as="points">
              <mxPoint x="597" y="590" />
              <mxPoint x="347" y="590" />
            </Array>
          </mxGeometry>
        </mxCell>
        <mxCell id="SNZ6q9r0I1uXDhb-Yw4I-18" value="Server" style="rounded=1;whiteSpace=wrap;html=1;fillColor=#dae8fc;strokeColor=#6c8ebf;" parent="SNZ6q9r0I1uXDhb-Yw4I-1" vertex="1">
          <mxGeometry x="537" y="460" width="120" height="60" as="geometry" />
        </mxCell>
        <mxCell id="SNZ6q9r0I1uXDhb-Yw4I-19" value="" style="endArrow=classic;html=1;rounded=0;" parent="SNZ6q9r0I1uXDhb-Yw4I-1" edge="1">
          <mxGeometry width="50" height="50" relative="1" as="geometry">
            <mxPoint x="390" y="50" as="sourcePoint" />
            <mxPoint x="490" y="50" as="targetPoint" />
          </mxGeometry>
        </mxCell>
        <mxCell id="SNZ6q9r0I1uXDhb-Yw4I-20" value="" style="endArrow=classic;html=1;rounded=0;" parent="SNZ6q9r0I1uXDhb-Yw4I-1" edge="1">
          <mxGeometry width="50" height="50" relative="1" as="geometry">
            <mxPoint x="490" y="110" as="sourcePoint" />
            <mxPoint x="390" y="110" as="targetPoint" />
          </mxGeometry>
        </mxCell>
        <mxCell id="SNZ6q9r0I1uXDhb-Yw4I-21" value="www.example.com?" style="text;html=1;strokeColor=none;fillColor=none;align=center;verticalAlign=middle;whiteSpace=wrap;rounded=0;" parent="SNZ6q9r0I1uXDhb-Yw4I-1" vertex="1">
          <mxGeometry x="403" y="20" width="60" height="30" as="geometry" />
        </mxCell>
        <mxCell id="SNZ6q9r0I1uXDhb-Yw4I-22" value="&lt;pre class=&quot;newpage&quot;&gt;203.0.113.72&lt;/pre&gt;" style="text;html=1;strokeColor=none;fillColor=none;align=center;verticalAlign=middle;whiteSpace=wrap;rounded=0;" parent="SNZ6q9r0I1uXDhb-Yw4I-1" vertex="1">
          <mxGeometry x="380" y="110" width="130" height="50" as="geometry" />
        </mxCell>
        <mxCell id="SNZ6q9r0I1uXDhb-Yw4I-23" value="HTTPS" style="text;html=1;strokeColor=none;fillColor=none;align=center;verticalAlign=middle;whiteSpace=wrap;rounded=0;" parent="SNZ6q9r0I1uXDhb-Yw4I-1" vertex="1">
          <mxGeometry x="290" y="150" width="60" height="30" as="geometry" />
        </mxCell>
        <mxCell id="SNZ6q9r0I1uXDhb-Yw4I-24" value="&lt;pre class=&quot;newpage&quot;&gt;203.0.113.72&lt;/pre&gt;" style="text;html=1;strokeColor=none;fillColor=none;align=center;verticalAlign=middle;whiteSpace=wrap;rounded=0;" parent="SNZ6q9r0I1uXDhb-Yw4I-1" vertex="1">
          <mxGeometry x="350" y="210" width="130" height="50" as="geometry" />
        </mxCell>
        <mxCell id="SNZ6q9r0I1uXDhb-Yw4I-25" value="" style="curved=1;endArrow=classic;html=1;rounded=0;exitX=0;exitY=1;exitDx=0;exitDy=0;entryX=0.5;entryY=0;entryDx=0;entryDy=0;dashed=1;fillColor=#dae8fc;strokeColor=#6c8ebf;" parent="SNZ6q9r0I1uXDhb-Yw4I-1" source="SNZ6q9r0I1uXDhb-Yw4I-7" target="SNZ6q9r0I1uXDhb-Yw4I-9" edge="1">
          <mxGeometry width="50" height="50" relative="1" as="geometry">
            <mxPoint x="240" y="320" as="sourcePoint" />
            <mxPoint x="190" y="370" as="targetPoint" />
            <Array as="points">
              <mxPoint x="190" y="320" />
              <mxPoint x="240" y="370" />
            </Array>
          </mxGeometry>
        </mxCell>
        <mxCell id="SNZ6q9r0I1uXDhb-Yw4I-26" value="" style="curved=1;endArrow=classic;html=1;rounded=0;entryX=0.5;entryY=0;entryDx=0;entryDy=0;exitX=0;exitY=1;exitDx=0;exitDy=0;dashed=1;fillColor=#dae8fc;strokeColor=#6c8ebf;" parent="SNZ6q9r0I1uXDhb-Yw4I-1" source="SNZ6q9r0I1uXDhb-Yw4I-7" target="SNZ6q9r0I1uXDhb-Yw4I-14" edge="1">
          <mxGeometry width="50" height="50" relative="1" as="geometry">
            <mxPoint x="320" y="320" as="sourcePoint" />
            <mxPoint x="107" y="470" as="targetPoint" />
            <Array as="points">
              <mxPoint x="200" y="330" />
              <mxPoint x="250" y="380" />
            </Array>
          </mxGeometry>
        </mxCell>
        <mxCell id="SNZ6q9r0I1uXDhb-Yw4I-27" value="" style="curved=1;endArrow=classic;html=1;rounded=0;entryX=0.5;entryY=0;entryDx=0;entryDy=0;exitX=1;exitY=1;exitDx=0;exitDy=0;dashed=1;fillColor=#dae8fc;strokeColor=#6c8ebf;" parent="SNZ6q9r0I1uXDhb-Yw4I-1" source="SNZ6q9r0I1uXDhb-Yw4I-7" target="SNZ6q9r0I1uXDhb-Yw4I-16" edge="1">
          <mxGeometry width="50" height="50" relative="1" as="geometry">
            <mxPoint x="537" y="300" as="sourcePoint" />
            <mxPoint x="484.75" y="450" as="targetPoint" />
            <Array as="points">
              <mxPoint x="420.75" y="320" />
              <mxPoint x="470.75" y="370" />
            </Array>
          </mxGeometry>
        </mxCell>
        <mxCell id="SNZ6q9r0I1uXDhb-Yw4I-28" value="" style="curved=1;endArrow=classic;html=1;rounded=0;entryX=0.5;entryY=0;entryDx=0;entryDy=0;exitX=1;exitY=1;exitDx=0;exitDy=0;dashed=1;fillColor=#f8cecc;strokeColor=#b85450;" parent="SNZ6q9r0I1uXDhb-Yw4I-1" source="SNZ6q9r0I1uXDhb-Yw4I-7" target="SNZ6q9r0I1uXDhb-Yw4I-18" edge="1">
          <mxGeometry width="50" height="50" relative="1" as="geometry">
            <mxPoint x="387.75" y="320" as="sourcePoint" />
            <mxPoint x="440" y="470" as="targetPoint" />
            <Array as="points">
              <mxPoint x="430.75" y="330" />
              <mxPoint x="480.75" y="380" />
            </Array>
          </mxGeometry>
        </mxCell>
        <mxCell id="SNZ6q9r0I1uXDhb-Yw4I-29" value="Healthchecks" style="text;html=1;strokeColor=none;fillColor=none;align=center;verticalAlign=middle;whiteSpace=wrap;rounded=0;" parent="SNZ6q9r0I1uXDhb-Yw4I-1" vertex="1">
          <mxGeometry x="430" y="310" width="60" height="30" as="geometry" />
        </mxCell>
        <mxCell id="SNZ6q9r0I1uXDhb-Yw4I-30" value="User Traffic" style="text;html=1;strokeColor=none;fillColor=none;align=center;verticalAlign=middle;whiteSpace=wrap;rounded=0;" parent="SNZ6q9r0I1uXDhb-Yw4I-1" vertex="1">
          <mxGeometry x="120" y="260" width="90" height="30" as="geometry" />
        </mxCell>
        <mxCell id="SNZ6q9r0I1uXDhb-Yw4I-31" value="User" style="text;html=1;strokeColor=none;fillColor=none;align=center;verticalAlign=middle;whiteSpace=wrap;rounded=0;" parent="SNZ6q9r0I1uXDhb-Yw4I-1" vertex="1">
          <mxGeometry x="280" y="80" width="60" height="30" as="geometry" />
        </mxCell>
        <mxCell id="uXtgU9mDEl6whSwzSc7f-0" value="" style="verticalLabelPosition=bottom;verticalAlign=top;html=1;shape=mxgraph.basic.x;fillColor=#e51400;strokeColor=#B20000;fontColor=#ffffff;" parent="SNZ6q9r0I1uXDhb-Yw4I-1" vertex="1">
          <mxGeometry x="547" y="440" width="100" height="100" as="geometry" />
        </mxCell>
      </root>
    </mxGraphModel>
  </diagram>
  <diagram id="zzXcp0uBulVEM3SGUe2D" name="Intermediate">
    <mxGraphModel dx="830" dy="1265" grid="1" gridSize="10" guides="1" tooltips="1" connect="1" arrows="1" fold="1" page="1" pageScale="1" pageWidth="1169" pageHeight="827" math="0" shadow="0">
      <root>
        <mxCell id="0" />
        <mxCell id="1" parent="0" />
        <mxCell id="GhrnvCcxofGf552X9n1_-5" value="" style="group" parent="1" vertex="1" connectable="0">
          <mxGeometry x="755" y="-720" width="813" height="430" as="geometry" />
        </mxCell>
        <mxCell id="FEYuTeR20uZyDO7HXXJq-67" value="" style="rounded=1;whiteSpace=wrap;html=1;fillColor=#d5e8d4;dashed=1;strokeColor=#82b366;" parent="GhrnvCcxofGf552X9n1_-5" vertex="1">
          <mxGeometry width="383" height="430" as="geometry" />
        </mxCell>
        <mxCell id="FEYuTeR20uZyDO7HXXJq-68" value="" style="rounded=1;whiteSpace=wrap;html=1;fillColor=#ffe6cc;dashed=1;strokeColor=#d79b00;" parent="GhrnvCcxofGf552X9n1_-5" vertex="1">
          <mxGeometry x="430" width="383" height="430" as="geometry" />
        </mxCell>
        <mxCell id="FEYuTeR20uZyDO7HXXJq-23" value="&lt;pre class=&quot;newpage&quot;&gt;203.0.113.72&lt;/pre&gt;" style="text;html=1;strokeColor=none;fillColor=none;align=center;verticalAlign=middle;whiteSpace=wrap;rounded=0;" parent="GhrnvCcxofGf552X9n1_-5" vertex="1">
          <mxGeometry x="170" y="290" width="130" height="50" as="geometry" />
        </mxCell>
        <mxCell id="FEYuTeR20uZyDO7HXXJq-51" value="DNS" style="ellipse;whiteSpace=wrap;html=1;fillColor=#e1d5e7;strokeColor=#9673a6;" parent="GhrnvCcxofGf552X9n1_-5" vertex="1">
          <mxGeometry x="347" y="110" width="120" height="80" as="geometry" />
        </mxCell>
        <mxCell id="FEYuTeR20uZyDO7HXXJq-52" value="" style="shape=actor;whiteSpace=wrap;html=1;" parent="GhrnvCcxofGf552X9n1_-5" vertex="1">
          <mxGeometry x="164" y="120" width="40" height="60" as="geometry" />
        </mxCell>
        <mxCell id="FEYuTeR20uZyDO7HXXJq-53" value="" style="endArrow=classic;html=1;rounded=0;" parent="GhrnvCcxofGf552X9n1_-5" edge="1">
          <mxGeometry width="50" height="50" relative="1" as="geometry">
            <mxPoint x="237" y="119.99999999999989" as="sourcePoint" />
            <mxPoint x="337" y="119.99999999999989" as="targetPoint" />
          </mxGeometry>
        </mxCell>
        <mxCell id="FEYuTeR20uZyDO7HXXJq-54" value="" style="endArrow=classic;html=1;rounded=0;" parent="GhrnvCcxofGf552X9n1_-5" edge="1">
          <mxGeometry width="50" height="50" relative="1" as="geometry">
            <mxPoint x="337" y="179.9999999999999" as="sourcePoint" />
            <mxPoint x="237" y="179.9999999999999" as="targetPoint" />
          </mxGeometry>
        </mxCell>
        <mxCell id="FEYuTeR20uZyDO7HXXJq-55" value="www.example.com?" style="text;html=1;strokeColor=none;fillColor=none;align=center;verticalAlign=middle;whiteSpace=wrap;rounded=0;" parent="GhrnvCcxofGf552X9n1_-5" vertex="1">
          <mxGeometry x="250" y="90" width="60" height="30" as="geometry" />
        </mxCell>
        <mxCell id="FEYuTeR20uZyDO7HXXJq-56" value="&lt;pre class=&quot;newpage&quot;&gt;203.0.113.72&lt;/pre&gt;" style="text;html=1;strokeColor=none;fillColor=none;align=center;verticalAlign=middle;whiteSpace=wrap;rounded=0;" parent="GhrnvCcxofGf552X9n1_-5" vertex="1">
          <mxGeometry x="227" y="180" width="130" height="50" as="geometry" />
        </mxCell>
        <mxCell id="FEYuTeR20uZyDO7HXXJq-57" value="HTTPS" style="text;html=1;strokeColor=none;fillColor=none;align=center;verticalAlign=middle;whiteSpace=wrap;rounded=0;" parent="GhrnvCcxofGf552X9n1_-5" vertex="1">
          <mxGeometry x="127" y="230" width="60" height="30" as="geometry" />
        </mxCell>
        <mxCell id="FEYuTeR20uZyDO7HXXJq-58" value="User 1" style="text;html=1;strokeColor=none;fillColor=none;align=center;verticalAlign=middle;whiteSpace=wrap;rounded=0;" parent="GhrnvCcxofGf552X9n1_-5" vertex="1">
          <mxGeometry x="104" y="150" width="60" height="30" as="geometry" />
        </mxCell>
        <mxCell id="FEYuTeR20uZyDO7HXXJq-59" value="CDN" style="triangle;whiteSpace=wrap;html=1;" parent="GhrnvCcxofGf552X9n1_-5" vertex="1">
          <mxGeometry x="154" y="340" width="60" height="80" as="geometry" />
        </mxCell>
        <mxCell id="FEYuTeR20uZyDO7HXXJq-66" style="edgeStyle=orthogonalEdgeStyle;rounded=0;orthogonalLoop=1;jettySize=auto;html=1;" parent="GhrnvCcxofGf552X9n1_-5" source="FEYuTeR20uZyDO7HXXJq-52" target="FEYuTeR20uZyDO7HXXJq-59" edge="1">
          <mxGeometry relative="1" as="geometry" />
        </mxCell>
        <mxCell id="FEYuTeR20uZyDO7HXXJq-60" value="" style="shape=actor;whiteSpace=wrap;html=1;" parent="GhrnvCcxofGf552X9n1_-5" vertex="1">
          <mxGeometry x="610" y="120" width="40" height="60" as="geometry" />
        </mxCell>
        <mxCell id="FEYuTeR20uZyDO7HXXJq-61" value="&lt;div&gt;User 2&lt;/div&gt;" style="text;html=1;strokeColor=none;fillColor=none;align=center;verticalAlign=middle;whiteSpace=wrap;rounded=0;" parent="GhrnvCcxofGf552X9n1_-5" vertex="1">
          <mxGeometry x="643" y="150" width="60" height="30" as="geometry" />
        </mxCell>
        <mxCell id="FEYuTeR20uZyDO7HXXJq-62" value="" style="endArrow=classic;html=1;rounded=0;" parent="GhrnvCcxofGf552X9n1_-5" edge="1">
          <mxGeometry width="50" height="50" relative="1" as="geometry">
            <mxPoint x="590" y="119" as="sourcePoint" />
            <mxPoint x="490" y="119" as="targetPoint" />
          </mxGeometry>
        </mxCell>
        <mxCell id="FEYuTeR20uZyDO7HXXJq-63" value="" style="endArrow=classic;html=1;rounded=0;" parent="GhrnvCcxofGf552X9n1_-5" edge="1">
          <mxGeometry width="50" height="50" relative="1" as="geometry">
            <mxPoint x="490" y="179" as="sourcePoint" />
            <mxPoint x="590" y="179" as="targetPoint" />
          </mxGeometry>
        </mxCell>
        <mxCell id="FEYuTeR20uZyDO7HXXJq-64" value="www.example.com?" style="text;html=1;strokeColor=none;fillColor=none;align=center;verticalAlign=middle;whiteSpace=wrap;rounded=0;" parent="GhrnvCcxofGf552X9n1_-5" vertex="1">
          <mxGeometry x="503" y="89" width="60" height="30" as="geometry" />
        </mxCell>
        <mxCell id="FEYuTeR20uZyDO7HXXJq-65" value="&lt;pre class=&quot;newpage&quot;&gt;198.51.100.23&lt;/pre&gt;" style="text;html=1;strokeColor=none;fillColor=none;align=center;verticalAlign=middle;whiteSpace=wrap;rounded=0;" parent="GhrnvCcxofGf552X9n1_-5" vertex="1">
          <mxGeometry x="480" y="180" width="130" height="50" as="geometry" />
        </mxCell>
        <mxCell id="FEYuTeR20uZyDO7HXXJq-69" value="&lt;pre class=&quot;newpage&quot;&gt;198.51.100.23&lt;/pre&gt;" style="text;html=1;strokeColor=none;fillColor=none;align=center;verticalAlign=middle;whiteSpace=wrap;rounded=0;" parent="GhrnvCcxofGf552X9n1_-5" vertex="1">
          <mxGeometry x="513" y="290" width="130" height="50" as="geometry" />
        </mxCell>
        <mxCell id="FEYuTeR20uZyDO7HXXJq-70" value="CDN" style="triangle;whiteSpace=wrap;html=1;" parent="GhrnvCcxofGf552X9n1_-5" vertex="1">
          <mxGeometry x="600" y="340" width="60" height="80" as="geometry" />
        </mxCell>
        <mxCell id="FEYuTeR20uZyDO7HXXJq-72" style="edgeStyle=orthogonalEdgeStyle;rounded=0;orthogonalLoop=1;jettySize=auto;html=1;" parent="GhrnvCcxofGf552X9n1_-5" source="FEYuTeR20uZyDO7HXXJq-60" target="FEYuTeR20uZyDO7HXXJq-70" edge="1">
          <mxGeometry relative="1" as="geometry" />
        </mxCell>
        <mxCell id="FEYuTeR20uZyDO7HXXJq-73" value="HTTPS" style="text;html=1;strokeColor=none;fillColor=none;align=center;verticalAlign=middle;whiteSpace=wrap;rounded=0;" parent="GhrnvCcxofGf552X9n1_-5" vertex="1">
          <mxGeometry x="630" y="230" width="60" height="30" as="geometry" />
        </mxCell>
        <mxCell id="FEYuTeR20uZyDO7HXXJq-74" style="edgeStyle=orthogonalEdgeStyle;rounded=0;orthogonalLoop=1;jettySize=auto;html=1;strokeWidth=4;" parent="1" source="FEYuTeR20uZyDO7HXXJq-59" target="FEYuTeR20uZyDO7HXXJq-6" edge="1">
          <mxGeometry relative="1" as="geometry" />
        </mxCell>
        <mxCell id="FEYuTeR20uZyDO7HXXJq-77" style="edgeStyle=orthogonalEdgeStyle;rounded=0;orthogonalLoop=1;jettySize=auto;html=1;entryX=0;entryY=0;entryDx=0;entryDy=0;dashed=1;strokeWidth=4;" parent="1" source="FEYuTeR20uZyDO7HXXJq-59" target="FEYuTeR20uZyDO7HXXJq-35" edge="1">
          <mxGeometry relative="1" as="geometry">
            <Array as="points">
              <mxPoint x="1069" y="-190" />
              <mxPoint x="1534" y="-190" />
            </Array>
          </mxGeometry>
        </mxCell>
        <mxCell id="FEYuTeR20uZyDO7HXXJq-75" style="edgeStyle=orthogonalEdgeStyle;rounded=0;orthogonalLoop=1;jettySize=auto;html=1;strokeWidth=4;" parent="1" source="FEYuTeR20uZyDO7HXXJq-70" target="FEYuTeR20uZyDO7HXXJq-35" edge="1">
          <mxGeometry relative="1" as="geometry" />
        </mxCell>
        <mxCell id="GhrnvCcxofGf552X9n1_-2" style="edgeStyle=orthogonalEdgeStyle;rounded=0;orthogonalLoop=1;jettySize=auto;html=1;entryX=1;entryY=0;entryDx=0;entryDy=0;dashed=1;strokeWidth=4;" parent="1" source="FEYuTeR20uZyDO7HXXJq-70" target="FEYuTeR20uZyDO7HXXJq-6" edge="1">
          <mxGeometry relative="1" as="geometry">
            <Array as="points">
              <mxPoint x="1385" y="-80" />
              <mxPoint x="985" y="-80" />
              <mxPoint x="985" y="170" />
            </Array>
          </mxGeometry>
        </mxCell>
        <mxCell id="GhrnvCcxofGf552X9n1_-7" value="&lt;font style=&quot;font-size: 24px&quot;&gt;Primary Regional Path&lt;/font&gt;" style="text;html=1;strokeColor=none;fillColor=none;align=center;verticalAlign=middle;whiteSpace=wrap;rounded=0;" parent="1" vertex="1">
          <mxGeometry x="645" y="-140" width="60" height="30" as="geometry" />
        </mxCell>
        <mxCell id="GhrnvCcxofGf552X9n1_-10" value="&lt;font style=&quot;font-size: 24px&quot;&gt;Alternate Regional Path&lt;/font&gt;" style="text;html=1;strokeColor=none;fillColor=none;align=center;verticalAlign=middle;whiteSpace=wrap;rounded=0;" parent="1" vertex="1">
          <mxGeometry x="855" y="-250" width="60" height="30" as="geometry" />
        </mxCell>
        <mxCell id="GhrnvCcxofGf552X9n1_-11" value="&lt;font style=&quot;font-size: 24px&quot;&gt;San Francisco&lt;br&gt;&lt;/font&gt;" style="text;html=1;strokeColor=none;fillColor=none;align=center;verticalAlign=middle;whiteSpace=wrap;rounded=0;" parent="1" vertex="1">
          <mxGeometry x="1305" y="-750" width="160" height="30" as="geometry" />
        </mxCell>
        <mxCell id="GhrnvCcxofGf552X9n1_-12" value="&lt;font style=&quot;font-size: 24px&quot;&gt;London&lt;/font&gt;" style="text;html=1;strokeColor=none;fillColor=none;align=center;verticalAlign=middle;whiteSpace=wrap;rounded=0;" parent="1" vertex="1">
          <mxGeometry x="925" y="-750" width="60" height="30" as="geometry" />
        </mxCell>
        <mxCell id="ChHuiTqFVY-F91kLzPRX-7" value="" style="group" parent="1" vertex="1" connectable="0">
          <mxGeometry x="390" y="40" width="1543" height="760" as="geometry" />
        </mxCell>
        <mxCell id="ChHuiTqFVY-F91kLzPRX-4" value="" style="group" parent="ChHuiTqFVY-F91kLzPRX-7" vertex="1" connectable="0">
          <mxGeometry width="700" height="760" as="geometry" />
        </mxCell>
        <mxCell id="ChHuiTqFVY-F91kLzPRX-1" value="&lt;font style=&quot;font-size: 32px&quot;&gt;us-east-1&lt;/font&gt;" style="text;html=1;strokeColor=none;fillColor=none;align=center;verticalAlign=middle;whiteSpace=wrap;rounded=0;" parent="ChHuiTqFVY-F91kLzPRX-4" vertex="1">
          <mxGeometry x="105" width="145" height="30" as="geometry" />
        </mxCell>
        <mxCell id="GhrnvCcxofGf552X9n1_-3" value="" style="rounded=1;whiteSpace=wrap;html=1;fillColor=#f5f5f5;strokeColor=#666666;fontColor=#333333;strokeWidth=2;" parent="ChHuiTqFVY-F91kLzPRX-4" vertex="1">
          <mxGeometry y="30" width="700" height="730" as="geometry" />
        </mxCell>
        <mxCell id="FEYuTeR20uZyDO7HXXJq-6" value="Loadbalancer" style="rhombus;whiteSpace=wrap;html=1;fillColor=#f8cecc;strokeColor=#b85450;" parent="ChHuiTqFVY-F91kLzPRX-4" vertex="1">
          <mxGeometry x="275.5" y="100" width="123" height="120" as="geometry" />
        </mxCell>
        <mxCell id="FEYuTeR20uZyDO7HXXJq-8" value="Server" style="rounded=1;whiteSpace=wrap;html=1;fillColor=#dae8fc;strokeColor=#6c8ebf;" parent="ChHuiTqFVY-F91kLzPRX-4" vertex="1">
          <mxGeometry x="27" y="340" width="120" height="60" as="geometry" />
        </mxCell>
        <mxCell id="FEYuTeR20uZyDO7HXXJq-2" style="edgeStyle=orthogonalEdgeStyle;rounded=0;orthogonalLoop=1;jettySize=auto;html=1;entryX=0.5;entryY=0;entryDx=0;entryDy=0;" parent="ChHuiTqFVY-F91kLzPRX-4" source="FEYuTeR20uZyDO7HXXJq-6" target="FEYuTeR20uZyDO7HXXJq-8" edge="1">
          <mxGeometry relative="1" as="geometry" />
        </mxCell>
        <mxCell id="FEYuTeR20uZyDO7HXXJq-9" value="DB" style="shape=cylinder3;whiteSpace=wrap;html=1;boundedLbl=1;backgroundOutline=1;size=15;fillColor=#fff2cc;strokeColor=#d6b656;" parent="ChHuiTqFVY-F91kLzPRX-4" vertex="1">
          <mxGeometry x="307" y="580" width="60" height="80" as="geometry" />
        </mxCell>
        <mxCell id="FEYuTeR20uZyDO7HXXJq-7" style="edgeStyle=orthogonalEdgeStyle;rounded=0;orthogonalLoop=1;jettySize=auto;html=1;entryX=0.5;entryY=0;entryDx=0;entryDy=0;entryPerimeter=0;" parent="ChHuiTqFVY-F91kLzPRX-4" source="FEYuTeR20uZyDO7HXXJq-8" target="FEYuTeR20uZyDO7HXXJq-9" edge="1">
          <mxGeometry relative="1" as="geometry">
            <Array as="points">
              <mxPoint x="87" y="470" />
              <mxPoint x="337" y="470" />
            </Array>
          </mxGeometry>
        </mxCell>
        <mxCell id="FEYuTeR20uZyDO7HXXJq-12" style="edgeStyle=orthogonalEdgeStyle;rounded=0;orthogonalLoop=1;jettySize=auto;html=1;" parent="ChHuiTqFVY-F91kLzPRX-4" source="FEYuTeR20uZyDO7HXXJq-13" target="FEYuTeR20uZyDO7HXXJq-9" edge="1">
          <mxGeometry relative="1" as="geometry" />
        </mxCell>
        <mxCell id="FEYuTeR20uZyDO7HXXJq-13" value="Server" style="rounded=1;whiteSpace=wrap;html=1;fillColor=#dae8fc;strokeColor=#6c8ebf;" parent="ChHuiTqFVY-F91kLzPRX-4" vertex="1">
          <mxGeometry x="194" y="340" width="120" height="60" as="geometry" />
        </mxCell>
        <mxCell id="FEYuTeR20uZyDO7HXXJq-3" style="edgeStyle=orthogonalEdgeStyle;rounded=0;orthogonalLoop=1;jettySize=auto;html=1;" parent="ChHuiTqFVY-F91kLzPRX-4" source="FEYuTeR20uZyDO7HXXJq-6" target="FEYuTeR20uZyDO7HXXJq-13" edge="1">
          <mxGeometry relative="1" as="geometry" />
        </mxCell>
        <mxCell id="FEYuTeR20uZyDO7HXXJq-14" style="edgeStyle=orthogonalEdgeStyle;rounded=0;orthogonalLoop=1;jettySize=auto;html=1;" parent="ChHuiTqFVY-F91kLzPRX-4" source="FEYuTeR20uZyDO7HXXJq-15" target="FEYuTeR20uZyDO7HXXJq-9" edge="1">
          <mxGeometry relative="1" as="geometry" />
        </mxCell>
        <mxCell id="FEYuTeR20uZyDO7HXXJq-15" value="Server" style="rounded=1;whiteSpace=wrap;html=1;fillColor=#dae8fc;strokeColor=#6c8ebf;" parent="ChHuiTqFVY-F91kLzPRX-4" vertex="1">
          <mxGeometry x="360" y="340" width="120" height="60" as="geometry" />
        </mxCell>
        <mxCell id="FEYuTeR20uZyDO7HXXJq-16" style="edgeStyle=orthogonalEdgeStyle;rounded=0;orthogonalLoop=1;jettySize=auto;html=1;" parent="ChHuiTqFVY-F91kLzPRX-4" source="FEYuTeR20uZyDO7HXXJq-17" target="FEYuTeR20uZyDO7HXXJq-9" edge="1">
          <mxGeometry relative="1" as="geometry">
            <Array as="points">
              <mxPoint x="587" y="470" />
              <mxPoint x="337" y="470" />
            </Array>
          </mxGeometry>
        </mxCell>
        <mxCell id="FEYuTeR20uZyDO7HXXJq-17" value="Server" style="rounded=1;whiteSpace=wrap;html=1;fillColor=#dae8fc;strokeColor=#6c8ebf;" parent="ChHuiTqFVY-F91kLzPRX-4" vertex="1">
          <mxGeometry x="527" y="340" width="120" height="60" as="geometry" />
        </mxCell>
        <mxCell id="FEYuTeR20uZyDO7HXXJq-24" value="" style="curved=1;endArrow=classic;html=1;rounded=0;exitX=0;exitY=1;exitDx=0;exitDy=0;entryX=0.5;entryY=0;entryDx=0;entryDy=0;dashed=1;fillColor=#dae8fc;strokeColor=#6c8ebf;" parent="ChHuiTqFVY-F91kLzPRX-4" source="FEYuTeR20uZyDO7HXXJq-6" target="FEYuTeR20uZyDO7HXXJq-8" edge="1">
          <mxGeometry width="50" height="50" relative="1" as="geometry">
            <mxPoint x="230" y="200" as="sourcePoint" />
            <mxPoint x="180" y="250" as="targetPoint" />
            <Array as="points">
              <mxPoint x="180" y="200" />
              <mxPoint x="230" y="250" />
            </Array>
          </mxGeometry>
        </mxCell>
        <mxCell id="FEYuTeR20uZyDO7HXXJq-4" style="edgeStyle=orthogonalEdgeStyle;rounded=0;orthogonalLoop=1;jettySize=auto;html=1;entryX=0.5;entryY=0;entryDx=0;entryDy=0;" parent="ChHuiTqFVY-F91kLzPRX-4" source="FEYuTeR20uZyDO7HXXJq-6" target="FEYuTeR20uZyDO7HXXJq-15" edge="1">
          <mxGeometry relative="1" as="geometry" />
        </mxCell>
        <mxCell id="FEYuTeR20uZyDO7HXXJq-25" value="" style="curved=1;endArrow=classic;html=1;rounded=0;entryX=0.5;entryY=0;entryDx=0;entryDy=0;exitX=0;exitY=1;exitDx=0;exitDy=0;dashed=1;fillColor=#dae8fc;strokeColor=#6c8ebf;" parent="ChHuiTqFVY-F91kLzPRX-4" source="FEYuTeR20uZyDO7HXXJq-6" target="FEYuTeR20uZyDO7HXXJq-13" edge="1">
          <mxGeometry width="50" height="50" relative="1" as="geometry">
            <mxPoint x="310" y="200" as="sourcePoint" />
            <mxPoint x="97" y="350" as="targetPoint" />
            <Array as="points">
              <mxPoint x="190" y="210" />
              <mxPoint x="240" y="260" />
            </Array>
          </mxGeometry>
        </mxCell>
        <mxCell id="FEYuTeR20uZyDO7HXXJq-26" value="" style="curved=1;endArrow=classic;html=1;rounded=0;entryX=0.5;entryY=0;entryDx=0;entryDy=0;exitX=1;exitY=1;exitDx=0;exitDy=0;dashed=1;fillColor=#dae8fc;strokeColor=#6c8ebf;" parent="ChHuiTqFVY-F91kLzPRX-4" source="FEYuTeR20uZyDO7HXXJq-6" target="FEYuTeR20uZyDO7HXXJq-15" edge="1">
          <mxGeometry width="50" height="50" relative="1" as="geometry">
            <mxPoint x="527" y="180" as="sourcePoint" />
            <mxPoint x="474.75" y="330" as="targetPoint" />
            <Array as="points">
              <mxPoint x="410.75" y="200" />
              <mxPoint x="460.75" y="250" />
            </Array>
          </mxGeometry>
        </mxCell>
        <mxCell id="FEYuTeR20uZyDO7HXXJq-5" style="edgeStyle=orthogonalEdgeStyle;rounded=0;orthogonalLoop=1;jettySize=auto;html=1;" parent="ChHuiTqFVY-F91kLzPRX-4" source="FEYuTeR20uZyDO7HXXJq-6" target="FEYuTeR20uZyDO7HXXJq-17" edge="1">
          <mxGeometry relative="1" as="geometry" />
        </mxCell>
        <mxCell id="FEYuTeR20uZyDO7HXXJq-27" value="" style="curved=1;endArrow=classic;html=1;rounded=0;entryX=0.5;entryY=0;entryDx=0;entryDy=0;exitX=1;exitY=1;exitDx=0;exitDy=0;dashed=1;fillColor=#dae8fc;strokeColor=#6c8ebf;" parent="ChHuiTqFVY-F91kLzPRX-4" source="FEYuTeR20uZyDO7HXXJq-6" target="FEYuTeR20uZyDO7HXXJq-17" edge="1">
          <mxGeometry width="50" height="50" relative="1" as="geometry">
            <mxPoint x="377.75" y="200" as="sourcePoint" />
            <mxPoint x="430" y="350" as="targetPoint" />
            <Array as="points">
              <mxPoint x="420.75" y="210" />
              <mxPoint x="470.75" y="260" />
            </Array>
          </mxGeometry>
        </mxCell>
        <mxCell id="FEYuTeR20uZyDO7HXXJq-28" value="Healthchecks" style="text;html=1;strokeColor=none;fillColor=none;align=center;verticalAlign=middle;whiteSpace=wrap;rounded=0;" parent="ChHuiTqFVY-F91kLzPRX-4" vertex="1">
          <mxGeometry x="420" y="190" width="60" height="30" as="geometry" />
        </mxCell>
        <mxCell id="FEYuTeR20uZyDO7HXXJq-29" value="User Traffic" style="text;html=1;strokeColor=none;fillColor=none;align=center;verticalAlign=middle;whiteSpace=wrap;rounded=0;" parent="ChHuiTqFVY-F91kLzPRX-4" vertex="1">
          <mxGeometry x="110" y="140" width="90" height="30" as="geometry" />
        </mxCell>
        <mxCell id="ChHuiTqFVY-F91kLzPRX-5" value="" style="group" parent="ChHuiTqFVY-F91kLzPRX-7" vertex="1" connectable="0">
          <mxGeometry x="843" width="700" height="760" as="geometry" />
        </mxCell>
        <mxCell id="ChHuiTqFVY-F91kLzPRX-2" value="&lt;font style=&quot;font-size: 32px&quot;&gt;us-west-2&lt;/font&gt;" style="text;html=1;strokeColor=none;fillColor=none;align=center;verticalAlign=middle;whiteSpace=wrap;rounded=0;" parent="ChHuiTqFVY-F91kLzPRX-5" vertex="1">
          <mxGeometry x="120" width="162" height="30" as="geometry" />
        </mxCell>
        <mxCell id="GhrnvCcxofGf552X9n1_-4" value="" style="rounded=1;whiteSpace=wrap;html=1;fillColor=#f5f5f5;strokeColor=#666666;fontColor=#333333;strokeWidth=2;" parent="ChHuiTqFVY-F91kLzPRX-5" vertex="1">
          <mxGeometry y="30" width="700" height="730" as="geometry" />
        </mxCell>
        <mxCell id="FEYuTeR20uZyDO7HXXJq-35" value="Loadbalancer" style="rhombus;whiteSpace=wrap;html=1;fillColor=#f8cecc;strokeColor=#b85450;" parent="ChHuiTqFVY-F91kLzPRX-5" vertex="1">
          <mxGeometry x="295.5" y="110" width="123" height="120" as="geometry" />
        </mxCell>
        <mxCell id="FEYuTeR20uZyDO7HXXJq-37" value="Server" style="rounded=1;whiteSpace=wrap;html=1;fillColor=#dae8fc;strokeColor=#6c8ebf;" parent="ChHuiTqFVY-F91kLzPRX-5" vertex="1">
          <mxGeometry x="47" y="350" width="120" height="60" as="geometry" />
        </mxCell>
        <mxCell id="FEYuTeR20uZyDO7HXXJq-31" style="edgeStyle=orthogonalEdgeStyle;rounded=0;orthogonalLoop=1;jettySize=auto;html=1;entryX=0.5;entryY=0;entryDx=0;entryDy=0;" parent="ChHuiTqFVY-F91kLzPRX-5" source="FEYuTeR20uZyDO7HXXJq-35" target="FEYuTeR20uZyDO7HXXJq-37" edge="1">
          <mxGeometry relative="1" as="geometry" />
        </mxCell>
        <mxCell id="FEYuTeR20uZyDO7HXXJq-38" value="DB" style="shape=cylinder3;whiteSpace=wrap;html=1;boundedLbl=1;backgroundOutline=1;size=15;fillColor=#fff2cc;strokeColor=#d6b656;" parent="ChHuiTqFVY-F91kLzPRX-5" vertex="1">
          <mxGeometry x="327" y="590" width="60" height="80" as="geometry" />
        </mxCell>
        <mxCell id="FEYuTeR20uZyDO7HXXJq-36" style="edgeStyle=orthogonalEdgeStyle;rounded=0;orthogonalLoop=1;jettySize=auto;html=1;entryX=0.5;entryY=0;entryDx=0;entryDy=0;entryPerimeter=0;" parent="ChHuiTqFVY-F91kLzPRX-5" source="FEYuTeR20uZyDO7HXXJq-37" target="FEYuTeR20uZyDO7HXXJq-38" edge="1">
          <mxGeometry relative="1" as="geometry">
            <Array as="points">
              <mxPoint x="107" y="480" />
              <mxPoint x="357" y="480" />
            </Array>
          </mxGeometry>
        </mxCell>
        <mxCell id="FEYuTeR20uZyDO7HXXJq-39" style="edgeStyle=orthogonalEdgeStyle;rounded=0;orthogonalLoop=1;jettySize=auto;html=1;" parent="ChHuiTqFVY-F91kLzPRX-5" source="FEYuTeR20uZyDO7HXXJq-40" target="FEYuTeR20uZyDO7HXXJq-38" edge="1">
          <mxGeometry relative="1" as="geometry" />
        </mxCell>
        <mxCell id="FEYuTeR20uZyDO7HXXJq-40" value="Server" style="rounded=1;whiteSpace=wrap;html=1;fillColor=#dae8fc;strokeColor=#6c8ebf;" parent="ChHuiTqFVY-F91kLzPRX-5" vertex="1">
          <mxGeometry x="214" y="350" width="120" height="60" as="geometry" />
        </mxCell>
        <mxCell id="FEYuTeR20uZyDO7HXXJq-32" style="edgeStyle=orthogonalEdgeStyle;rounded=0;orthogonalLoop=1;jettySize=auto;html=1;" parent="ChHuiTqFVY-F91kLzPRX-5" source="FEYuTeR20uZyDO7HXXJq-35" target="FEYuTeR20uZyDO7HXXJq-40" edge="1">
          <mxGeometry relative="1" as="geometry" />
        </mxCell>
        <mxCell id="FEYuTeR20uZyDO7HXXJq-41" style="edgeStyle=orthogonalEdgeStyle;rounded=0;orthogonalLoop=1;jettySize=auto;html=1;" parent="ChHuiTqFVY-F91kLzPRX-5" source="FEYuTeR20uZyDO7HXXJq-42" target="FEYuTeR20uZyDO7HXXJq-38" edge="1">
          <mxGeometry relative="1" as="geometry" />
        </mxCell>
        <mxCell id="FEYuTeR20uZyDO7HXXJq-42" value="Server" style="rounded=1;whiteSpace=wrap;html=1;fillColor=#dae8fc;strokeColor=#6c8ebf;" parent="ChHuiTqFVY-F91kLzPRX-5" vertex="1">
          <mxGeometry x="380" y="350" width="120" height="60" as="geometry" />
        </mxCell>
        <mxCell id="FEYuTeR20uZyDO7HXXJq-43" style="edgeStyle=orthogonalEdgeStyle;rounded=0;orthogonalLoop=1;jettySize=auto;html=1;" parent="ChHuiTqFVY-F91kLzPRX-5" source="FEYuTeR20uZyDO7HXXJq-44" target="FEYuTeR20uZyDO7HXXJq-38" edge="1">
          <mxGeometry relative="1" as="geometry">
            <Array as="points">
              <mxPoint x="607" y="480" />
              <mxPoint x="357" y="480" />
            </Array>
          </mxGeometry>
        </mxCell>
        <mxCell id="FEYuTeR20uZyDO7HXXJq-44" value="Server" style="rounded=1;whiteSpace=wrap;html=1;fillColor=#dae8fc;strokeColor=#6c8ebf;" parent="ChHuiTqFVY-F91kLzPRX-5" vertex="1">
          <mxGeometry x="547" y="350" width="120" height="60" as="geometry" />
        </mxCell>
        <mxCell id="FEYuTeR20uZyDO7HXXJq-45" value="" style="curved=1;endArrow=classic;html=1;rounded=0;exitX=0;exitY=1;exitDx=0;exitDy=0;entryX=0.5;entryY=0;entryDx=0;entryDy=0;dashed=1;fillColor=#dae8fc;strokeColor=#6c8ebf;" parent="ChHuiTqFVY-F91kLzPRX-5" source="FEYuTeR20uZyDO7HXXJq-35" target="FEYuTeR20uZyDO7HXXJq-37" edge="1">
          <mxGeometry width="50" height="50" relative="1" as="geometry">
            <mxPoint x="250" y="210" as="sourcePoint" />
            <mxPoint x="200" y="260" as="targetPoint" />
            <Array as="points">
              <mxPoint x="200" y="210" />
              <mxPoint x="250" y="260" />
            </Array>
          </mxGeometry>
        </mxCell>
        <mxCell id="FEYuTeR20uZyDO7HXXJq-33" style="edgeStyle=orthogonalEdgeStyle;rounded=0;orthogonalLoop=1;jettySize=auto;html=1;entryX=0.5;entryY=0;entryDx=0;entryDy=0;" parent="ChHuiTqFVY-F91kLzPRX-5" source="FEYuTeR20uZyDO7HXXJq-35" target="FEYuTeR20uZyDO7HXXJq-42" edge="1">
          <mxGeometry relative="1" as="geometry" />
        </mxCell>
        <mxCell id="FEYuTeR20uZyDO7HXXJq-46" value="" style="curved=1;endArrow=classic;html=1;rounded=0;entryX=0.5;entryY=0;entryDx=0;entryDy=0;exitX=0;exitY=1;exitDx=0;exitDy=0;dashed=1;fillColor=#dae8fc;strokeColor=#6c8ebf;" parent="ChHuiTqFVY-F91kLzPRX-5" source="FEYuTeR20uZyDO7HXXJq-35" target="FEYuTeR20uZyDO7HXXJq-40" edge="1">
          <mxGeometry width="50" height="50" relative="1" as="geometry">
            <mxPoint x="330" y="210" as="sourcePoint" />
            <mxPoint x="117" y="360" as="targetPoint" />
            <Array as="points">
              <mxPoint x="210" y="220" />
              <mxPoint x="260" y="270" />
            </Array>
          </mxGeometry>
        </mxCell>
        <mxCell id="FEYuTeR20uZyDO7HXXJq-47" value="" style="curved=1;endArrow=classic;html=1;rounded=0;entryX=0.5;entryY=0;entryDx=0;entryDy=0;exitX=1;exitY=1;exitDx=0;exitDy=0;dashed=1;fillColor=#dae8fc;strokeColor=#6c8ebf;" parent="ChHuiTqFVY-F91kLzPRX-5" source="FEYuTeR20uZyDO7HXXJq-35" target="FEYuTeR20uZyDO7HXXJq-42" edge="1">
          <mxGeometry width="50" height="50" relative="1" as="geometry">
            <mxPoint x="547" y="190" as="sourcePoint" />
            <mxPoint x="494.75" y="340" as="targetPoint" />
            <Array as="points">
              <mxPoint x="430.75" y="210" />
              <mxPoint x="480.75" y="260" />
            </Array>
          </mxGeometry>
        </mxCell>
        <mxCell id="FEYuTeR20uZyDO7HXXJq-34" style="edgeStyle=orthogonalEdgeStyle;rounded=0;orthogonalLoop=1;jettySize=auto;html=1;" parent="ChHuiTqFVY-F91kLzPRX-5" source="FEYuTeR20uZyDO7HXXJq-35" target="FEYuTeR20uZyDO7HXXJq-44" edge="1">
          <mxGeometry relative="1" as="geometry" />
        </mxCell>
        <mxCell id="FEYuTeR20uZyDO7HXXJq-48" value="" style="curved=1;endArrow=classic;html=1;rounded=0;entryX=0.5;entryY=0;entryDx=0;entryDy=0;exitX=1;exitY=1;exitDx=0;exitDy=0;dashed=1;fillColor=#dae8fc;strokeColor=#6c8ebf;" parent="ChHuiTqFVY-F91kLzPRX-5" source="FEYuTeR20uZyDO7HXXJq-35" target="FEYuTeR20uZyDO7HXXJq-44" edge="1">
          <mxGeometry width="50" height="50" relative="1" as="geometry">
            <mxPoint x="397.75" y="210" as="sourcePoint" />
            <mxPoint x="450" y="360" as="targetPoint" />
            <Array as="points">
              <mxPoint x="440.75" y="220" />
              <mxPoint x="490.75" y="270" />
            </Array>
          </mxGeometry>
        </mxCell>
        <mxCell id="FEYuTeR20uZyDO7HXXJq-49" value="Healthchecks" style="text;html=1;strokeColor=none;fillColor=none;align=center;verticalAlign=middle;whiteSpace=wrap;rounded=0;" parent="ChHuiTqFVY-F91kLzPRX-5" vertex="1">
          <mxGeometry x="440" y="200" width="60" height="30" as="geometry" />
        </mxCell>
        <mxCell id="FEYuTeR20uZyDO7HXXJq-50" value="User Traffic" style="text;html=1;strokeColor=none;fillColor=none;align=center;verticalAlign=middle;whiteSpace=wrap;rounded=0;" parent="ChHuiTqFVY-F91kLzPRX-5" vertex="1">
          <mxGeometry x="130" y="150" width="90" height="30" as="geometry" />
        </mxCell>
      </root>
    </mxGraphModel>
  </diagram>
  <diagram id="Hzlsud-uYzJrNG61jxM-" name="Autoscaling">
    <mxGraphModel dx="1730" dy="912" grid="1" gridSize="10" guides="1" tooltips="1" connect="1" arrows="1" fold="1" page="1" pageScale="1" pageWidth="1169" pageHeight="827" math="0" shadow="0">
      <root>
        <mxCell id="0" />
        <mxCell id="1" parent="0" />
        <mxCell id="WLmFf9JPBoV-ZJyoaNO6-3" value="" style="rounded=1;whiteSpace=wrap;html=1;fillColor=#f5f5f5;strokeColor=#666666;fontColor=#333333;strokeWidth=2;" vertex="1" parent="1">
          <mxGeometry x="114" y="70" width="940" height="730" as="geometry" />
        </mxCell>
        <mxCell id="WLmFf9JPBoV-ZJyoaNO6-24" value="" style="rounded=1;whiteSpace=wrap;html=1;fontSize=32;strokeWidth=2;fillColor=none;gradientColor=none;dashed=1;" vertex="1" parent="1">
          <mxGeometry x="124" y="340" width="880" height="130" as="geometry" />
        </mxCell>
        <mxCell id="WLmFf9JPBoV-ZJyoaNO6-2" value="&lt;font style=&quot;font-size: 32px&quot;&gt;us-east-1&lt;/font&gt;" style="text;html=1;strokeColor=none;fillColor=none;align=center;verticalAlign=middle;whiteSpace=wrap;rounded=0;" vertex="1" parent="1">
          <mxGeometry x="219" y="40" width="145" height="30" as="geometry" />
        </mxCell>
        <mxCell id="WLmFf9JPBoV-ZJyoaNO6-4" value="Loadbalancer" style="rhombus;whiteSpace=wrap;html=1;fillColor=#f8cecc;strokeColor=#b85450;" vertex="1" parent="1">
          <mxGeometry x="389.5" y="140" width="123" height="120" as="geometry" />
        </mxCell>
        <mxCell id="WLmFf9JPBoV-ZJyoaNO6-5" value="Server" style="rounded=1;whiteSpace=wrap;html=1;fillColor=#dae8fc;strokeColor=#6c8ebf;" vertex="1" parent="1">
          <mxGeometry x="141" y="380" width="120" height="60" as="geometry" />
        </mxCell>
        <mxCell id="WLmFf9JPBoV-ZJyoaNO6-6" style="edgeStyle=orthogonalEdgeStyle;rounded=0;orthogonalLoop=1;jettySize=auto;html=1;entryX=0.5;entryY=0;entryDx=0;entryDy=0;" edge="1" parent="1" source="WLmFf9JPBoV-ZJyoaNO6-4" target="WLmFf9JPBoV-ZJyoaNO6-5">
          <mxGeometry relative="1" as="geometry" />
        </mxCell>
        <mxCell id="WLmFf9JPBoV-ZJyoaNO6-7" value="DB" style="shape=cylinder3;whiteSpace=wrap;html=1;boundedLbl=1;backgroundOutline=1;size=15;fillColor=#fff2cc;strokeColor=#d6b656;" vertex="1" parent="1">
          <mxGeometry x="421" y="620" width="60" height="80" as="geometry" />
        </mxCell>
        <mxCell id="WLmFf9JPBoV-ZJyoaNO6-8" style="edgeStyle=orthogonalEdgeStyle;rounded=0;orthogonalLoop=1;jettySize=auto;html=1;entryX=0.5;entryY=0;entryDx=0;entryDy=0;entryPerimeter=0;" edge="1" parent="1" source="WLmFf9JPBoV-ZJyoaNO6-5" target="WLmFf9JPBoV-ZJyoaNO6-7">
          <mxGeometry relative="1" as="geometry">
            <Array as="points">
              <mxPoint x="201" y="510" />
              <mxPoint x="451" y="510" />
            </Array>
          </mxGeometry>
        </mxCell>
        <mxCell id="WLmFf9JPBoV-ZJyoaNO6-9" style="edgeStyle=orthogonalEdgeStyle;rounded=0;orthogonalLoop=1;jettySize=auto;html=1;" edge="1" parent="1" source="WLmFf9JPBoV-ZJyoaNO6-10" target="WLmFf9JPBoV-ZJyoaNO6-7">
          <mxGeometry relative="1" as="geometry" />
        </mxCell>
        <mxCell id="WLmFf9JPBoV-ZJyoaNO6-10" value="Server" style="rounded=1;whiteSpace=wrap;html=1;fillColor=#dae8fc;strokeColor=#6c8ebf;" vertex="1" parent="1">
          <mxGeometry x="308" y="380" width="120" height="60" as="geometry" />
        </mxCell>
        <mxCell id="WLmFf9JPBoV-ZJyoaNO6-11" style="edgeStyle=orthogonalEdgeStyle;rounded=0;orthogonalLoop=1;jettySize=auto;html=1;" edge="1" parent="1" source="WLmFf9JPBoV-ZJyoaNO6-4" target="WLmFf9JPBoV-ZJyoaNO6-10">
          <mxGeometry relative="1" as="geometry" />
        </mxCell>
        <mxCell id="WLmFf9JPBoV-ZJyoaNO6-12" style="edgeStyle=orthogonalEdgeStyle;rounded=0;orthogonalLoop=1;jettySize=auto;html=1;" edge="1" parent="1" source="WLmFf9JPBoV-ZJyoaNO6-13" target="WLmFf9JPBoV-ZJyoaNO6-7">
          <mxGeometry relative="1" as="geometry" />
        </mxCell>
        <mxCell id="WLmFf9JPBoV-ZJyoaNO6-13" value="Server" style="rounded=1;whiteSpace=wrap;html=1;fillColor=#dae8fc;strokeColor=#6c8ebf;" vertex="1" parent="1">
          <mxGeometry x="474" y="380" width="120" height="60" as="geometry" />
        </mxCell>
        <mxCell id="WLmFf9JPBoV-ZJyoaNO6-14" style="edgeStyle=orthogonalEdgeStyle;rounded=0;orthogonalLoop=1;jettySize=auto;html=1;" edge="1" parent="1" source="WLmFf9JPBoV-ZJyoaNO6-15" target="WLmFf9JPBoV-ZJyoaNO6-7">
          <mxGeometry relative="1" as="geometry">
            <Array as="points">
              <mxPoint x="701" y="510" />
              <mxPoint x="451" y="510" />
            </Array>
          </mxGeometry>
        </mxCell>
        <mxCell id="WLmFf9JPBoV-ZJyoaNO6-15" value="Server" style="rounded=1;whiteSpace=wrap;html=1;fillColor=#dae8fc;strokeColor=#6c8ebf;" vertex="1" parent="1">
          <mxGeometry x="641" y="380" width="120" height="60" as="geometry" />
        </mxCell>
        <mxCell id="WLmFf9JPBoV-ZJyoaNO6-16" value="" style="curved=1;endArrow=classic;html=1;rounded=0;exitX=0;exitY=1;exitDx=0;exitDy=0;entryX=0.5;entryY=0;entryDx=0;entryDy=0;dashed=1;fillColor=#dae8fc;strokeColor=#6c8ebf;" edge="1" parent="1" source="WLmFf9JPBoV-ZJyoaNO6-4" target="WLmFf9JPBoV-ZJyoaNO6-5">
          <mxGeometry width="50" height="50" relative="1" as="geometry">
            <mxPoint x="344" y="240" as="sourcePoint" />
            <mxPoint x="294" y="290" as="targetPoint" />
            <Array as="points">
              <mxPoint x="294" y="240" />
              <mxPoint x="344" y="290" />
            </Array>
          </mxGeometry>
        </mxCell>
        <mxCell id="WLmFf9JPBoV-ZJyoaNO6-17" style="edgeStyle=orthogonalEdgeStyle;rounded=0;orthogonalLoop=1;jettySize=auto;html=1;entryX=0.5;entryY=0;entryDx=0;entryDy=0;" edge="1" parent="1" source="WLmFf9JPBoV-ZJyoaNO6-4" target="WLmFf9JPBoV-ZJyoaNO6-13">
          <mxGeometry relative="1" as="geometry" />
        </mxCell>
        <mxCell id="WLmFf9JPBoV-ZJyoaNO6-18" value="" style="curved=1;endArrow=classic;html=1;rounded=0;entryX=0.5;entryY=0;entryDx=0;entryDy=0;exitX=0;exitY=1;exitDx=0;exitDy=0;dashed=1;fillColor=#dae8fc;strokeColor=#6c8ebf;" edge="1" parent="1" source="WLmFf9JPBoV-ZJyoaNO6-4" target="WLmFf9JPBoV-ZJyoaNO6-10">
          <mxGeometry width="50" height="50" relative="1" as="geometry">
            <mxPoint x="424" y="240" as="sourcePoint" />
            <mxPoint x="211" y="390" as="targetPoint" />
            <Array as="points">
              <mxPoint x="304" y="250" />
              <mxPoint x="354" y="300" />
            </Array>
          </mxGeometry>
        </mxCell>
        <mxCell id="WLmFf9JPBoV-ZJyoaNO6-19" value="" style="curved=1;endArrow=classic;html=1;rounded=0;entryX=0.5;entryY=0;entryDx=0;entryDy=0;exitX=1;exitY=1;exitDx=0;exitDy=0;dashed=1;fillColor=#dae8fc;strokeColor=#6c8ebf;" edge="1" parent="1" source="WLmFf9JPBoV-ZJyoaNO6-4" target="WLmFf9JPBoV-ZJyoaNO6-13">
          <mxGeometry width="50" height="50" relative="1" as="geometry">
            <mxPoint x="641" y="220" as="sourcePoint" />
            <mxPoint x="588.75" y="370" as="targetPoint" />
            <Array as="points">
              <mxPoint x="524.75" y="240" />
              <mxPoint x="574.75" y="290" />
            </Array>
          </mxGeometry>
        </mxCell>
        <mxCell id="WLmFf9JPBoV-ZJyoaNO6-20" style="edgeStyle=orthogonalEdgeStyle;rounded=0;orthogonalLoop=1;jettySize=auto;html=1;" edge="1" parent="1" source="WLmFf9JPBoV-ZJyoaNO6-4" target="WLmFf9JPBoV-ZJyoaNO6-15">
          <mxGeometry relative="1" as="geometry" />
        </mxCell>
        <mxCell id="WLmFf9JPBoV-ZJyoaNO6-21" value="" style="curved=1;endArrow=classic;html=1;rounded=0;entryX=0.5;entryY=0;entryDx=0;entryDy=0;exitX=1;exitY=1;exitDx=0;exitDy=0;dashed=1;fillColor=#dae8fc;strokeColor=#6c8ebf;" edge="1" parent="1" source="WLmFf9JPBoV-ZJyoaNO6-4" target="WLmFf9JPBoV-ZJyoaNO6-15">
          <mxGeometry width="50" height="50" relative="1" as="geometry">
            <mxPoint x="491.75" y="240" as="sourcePoint" />
            <mxPoint x="544" y="390" as="targetPoint" />
            <Array as="points">
              <mxPoint x="534.75" y="250" />
              <mxPoint x="584.75" y="300" />
            </Array>
          </mxGeometry>
        </mxCell>
        <mxCell id="WLmFf9JPBoV-ZJyoaNO6-22" value="Healthchecks" style="text;html=1;strokeColor=none;fillColor=none;align=center;verticalAlign=middle;whiteSpace=wrap;rounded=0;" vertex="1" parent="1">
          <mxGeometry x="534" y="230" width="60" height="30" as="geometry" />
        </mxCell>
        <mxCell id="WLmFf9JPBoV-ZJyoaNO6-23" value="User Traffic" style="text;html=1;strokeColor=none;fillColor=none;align=center;verticalAlign=middle;whiteSpace=wrap;rounded=0;" vertex="1" parent="1">
          <mxGeometry x="224" y="180" width="90" height="30" as="geometry" />
        </mxCell>
        <mxCell id="WLmFf9JPBoV-ZJyoaNO6-25" value="Server&lt;br&gt;(Starting...)" style="rounded=1;whiteSpace=wrap;html=1;fillColor=#dae8fc;strokeColor=#6c8ebf;dashed=1;" vertex="1" parent="1">
          <mxGeometry x="814" y="380" width="120" height="60" as="geometry" />
        </mxCell>
        <mxCell id="WLmFf9JPBoV-ZJyoaNO6-27" value="&lt;font style=&quot;font-size: 24px&quot;&gt;Autoscaling Group&lt;/font&gt;" style="text;html=1;strokeColor=none;fillColor=none;align=center;verticalAlign=middle;whiteSpace=wrap;rounded=0;" vertex="1" parent="1">
          <mxGeometry x="772.75" y="300" width="202.5" height="30" as="geometry" />
        </mxCell>
        <mxCell id="WLmFf9JPBoV-ZJyoaNO6-28" value="&lt;font style=&quot;font-size: 12px&quot;&gt;Load 75%&lt;br&gt;&lt;/font&gt;" style="text;html=1;strokeColor=none;fillColor=none;align=center;verticalAlign=middle;whiteSpace=wrap;rounded=0;dashed=1;fontSize=24;" vertex="1" parent="1">
          <mxGeometry x="201" y="370" width="60" height="30" as="geometry" />
        </mxCell>
        <mxCell id="WLmFf9JPBoV-ZJyoaNO6-29" value="&lt;font style=&quot;font-size: 12px&quot;&gt;Load 75%&lt;br&gt;&lt;/font&gt;" style="text;html=1;strokeColor=none;fillColor=none;align=center;verticalAlign=middle;whiteSpace=wrap;rounded=0;dashed=1;fontSize=24;" vertex="1" parent="1">
          <mxGeometry x="368" y="370" width="60" height="30" as="geometry" />
        </mxCell>
        <mxCell id="WLmFf9JPBoV-ZJyoaNO6-30" value="&lt;font style=&quot;font-size: 12px&quot;&gt;Load 90%&lt;br&gt;&lt;/font&gt;" style="text;html=1;strokeColor=none;fillColor=none;align=center;verticalAlign=middle;whiteSpace=wrap;rounded=0;dashed=1;fontSize=24;" vertex="1" parent="1">
          <mxGeometry x="534" y="370" width="60" height="30" as="geometry" />
        </mxCell>
        <mxCell id="WLmFf9JPBoV-ZJyoaNO6-31" value="&lt;font style=&quot;font-size: 12px&quot;&gt;Load 70%&lt;br&gt;&lt;/font&gt;" style="text;html=1;strokeColor=none;fillColor=none;align=center;verticalAlign=middle;whiteSpace=wrap;rounded=0;dashed=1;fontSize=24;" vertex="1" parent="1">
          <mxGeometry x="701" y="370" width="60" height="30" as="geometry" />
        </mxCell>
        <mxCell id="WLmFf9JPBoV-ZJyoaNO6-33" style="edgeStyle=orthogonalEdgeStyle;rounded=0;orthogonalLoop=1;jettySize=auto;html=1;entryX=0.5;entryY=1;entryDx=0;entryDy=0;fontSize=12;strokeWidth=2;" edge="1" parent="1" source="WLmFf9JPBoV-ZJyoaNO6-32" target="WLmFf9JPBoV-ZJyoaNO6-25">
          <mxGeometry relative="1" as="geometry" />
        </mxCell>
        <mxCell id="WLmFf9JPBoV-ZJyoaNO6-32" value="OS Image (AMI)" style="shape=parallelogram;perimeter=parallelogramPerimeter;whiteSpace=wrap;html=1;fixedSize=1;fontSize=12;strokeWidth=2;fillColor=none;gradientColor=none;" vertex="1" parent="1">
          <mxGeometry x="814" y="530" width="120" height="60" as="geometry" />
        </mxCell>
      </root>
    </mxGraphModel>
  </diagram>
</mxfile>
